<svg xmlns="http://www.w3.org/2000/svg" width="31.125" height="39.47" viewBox="0 0 31.125 39.47">
  <defs>
    <style>
      .cls-1 {
        fill: #fff;
        fill-rule: evenodd;
      }
    </style>
  </defs>
  <path id="link" class="cls-1" d="M195.147,1632.4l-5.68,9.84a3.253,3.253,0,0,1-4.433,1.19l-1.406-.81,1.623-2.82h0a1.617,1.617,0,0,0,2.217-.59l4.057-7.03a1.615,1.615,0,0,0-.594-2.21l-5.622-3.25a1.624,1.624,0,0,0-2.216.59l-4.058,7.03a1.626,1.626,0,0,0,.594,2.22l-1.622,2.81-1.406-.81a3.253,3.253,0,0,1-1.188-4.44l5.68-9.83a3.237,3.237,0,0,1,4.434-1.19l8.432,4.87A3.241,3.241,0,0,1,195.147,1632.4Zm-19.2,17.02a1.615,1.615,0,0,1-.594-2.21l6.491-11.25a1.625,1.625,0,0,1,2.811,1.63l-6.491,11.24A1.617,1.617,0,0,1,175.949,1649.42Zm-1.188-4.43h0a1.626,1.626,0,0,0-2.217.59l-4.057,7.03a1.626,1.626,0,0,0,.594,2.22l5.622,3.24a1.616,1.616,0,0,0,2.216-.59l4.058-7.03a1.615,1.615,0,0,0-.594-2.21h0l1.623-2.81,1.406,0.81a3.241,3.241,0,0,1,1.188,4.43l-5.68,9.84a3.254,3.254,0,0,1-4.434,1.19l-8.432-4.87a3.253,3.253,0,0,1-1.188-4.44l5.68-9.83a3.236,3.236,0,0,1,4.433-1.19l1.406,0.81Z" transform="translate(-164.438 -1622.66)"/>
</svg>
